<svg id="Capa_1" enable-background="new 0 0 512 512" height="512" viewBox="0 0 512 512" width="512" xmlns="http://www.w3.org/2000/svg"><g><path d="m170.626 154.238c0-13.496 10.941-24.437 24.437-24.437s24.437 10.941 24.437 24.437v-133.776c0-11.301-9.161-20.462-20.461-20.462h-146.139c-11.301 0-20.462 9.161-20.462 20.462v146.139c0 11.301 9.161 20.462 20.462 20.462h117.726z" fill="#b3e59f"/><path d="m199.039 0h-20.746v94.237c0 39.887-32.335 72.222-72.222 72.222h-73.633v.142c0 11.301 9.161 20.462 20.462 20.462h117.726l48.875-32.824v-133.777c-.001-11.301-9.162-20.462-20.462-20.462z" fill="#95d6a4"/><path d="m172.072 43.712-58.888 57.872c-.565.556-1.482.556-2.048 0l-31.27-30.73c-.565-.556-1.482-.556-2.048 0l-19.201 18.871c-.565.556-.565 1.457 0 2.012l52.519 51.613c.565.556 1.482.556 2.048 0l80.138-78.755c.565-.556.565-1.457 0-2.012l-19.202-18.871c-.565-.555-1.482-.555-2.048 0z" fill="#ebfbd9"/><path d="m178.293 47.813v31.552l15.029-14.77c.565-.556.565-1.457 0-2.012z" fill="#ddfbea"/><path d="m459.1 187.062h-146.139c-11.301 0-20.462-9.161-20.462-20.462v-146.138c0-11.301 9.161-20.462 20.462-20.462h146.139c11.301 0 20.462 9.161 20.462 20.462v146.139c0 11.3-9.161 20.461-20.462 20.461z" fill="#da387d"/><path d="m459.1 0h-20.745v94.237c0 39.887-32.335 72.222-72.222 72.222h-73.633v.142c0 11.301 9.161 20.462 20.462 20.462h146.138c11.301 0 20.462-9.161 20.462-20.462v-146.139c0-11.301-9.161-20.462-20.462-20.462z" fill="#d80a61"/><path d="m409.234 92.853 30.545-30.017c.597-.587.597-1.547 0-2.134l-20.363-20.012c-.597-.587-1.574-.587-2.171 0l-30.568 30.04c-.358.352-.933.352-1.291 0l-30.568-30.04c-.597-.587-1.574-.587-2.171 0l-20.363 20.012c-.597.587-.597 1.547 0 2.134l30.545 30.017c.367.361.367.953 0 1.314l-30.529 30.002c-.617.607-.618 1.602-.001 2.209l20.308 19.99c.603.593 1.57.594 2.173.001l30.607-30.079c.358-.352.933-.352 1.291 0l30.607 30.079c.603.593 1.57.592 2.173-.001l20.308-19.99c.617-.607.617-1.602-.001-2.209l-30.529-30.002c-.369-.361-.369-.953-.002-1.314z" fill="#f9c6da"/><path d="m419.456 146.368 20.308-19.99c.617-.607.616-1.602-.001-2.209l-5.633-5.536c-3.716 10.355-9.73 19.615-17.427 27.165l.58.57c.604.593 1.571.593 2.173 0z" fill="#efa5c3"/><path d="m438.355 59.302v4.934l1.425-1.4c.597-.587.597-1.547 0-2.134z" fill="#efa5c3"/><path d="m366.125 271.984c0-9.842-7.979-17.821-17.821-17.821h-13.233c-9.842 0-17.821 7.979-17.821 17.821v-.595-21.193c0-9.842-7.979-17.821-17.821-17.821h-13.233c-9.842 0-17.821 7.979-17.821 17.821v-.595-10.126c0-9.842-7.979-17.821-17.821-17.821h-13.233c-9.842 0-17.821 7.979-17.821 17.821v6.617-91.854c0-13.496-10.941-24.437-24.437-24.437-13.496 0-24.437 10.941-24.437 24.437v159.076l-8.207-14.215c-10.648-18.443-34.236-24.757-52.675-14.097-4.929 2.85-6.607 9.167-3.76 14.098l76.262 132.09c2.578 4.79 5.544 9.34 8.855 13.609 7.999 10.311 12.294 23.012 12.296 36.062l.004 29.574c0 .865.701 1.566 1.566 1.566h126.818c.865 0 1.566-.701 1.566-1.565l.004-29.558c.002-12.928 4.111-25.601 12.074-35.786 12.969-16.588 20.698-37.469 20.697-60.157v-112.951z" fill="#f9a58e"/><g fill="#df9380"><path d="m348.304 254.163h-13.085v110.167c.001 22.687-7.729 43.569-20.697 60.157-7.963 10.185-12.072 22.857-12.074 35.786-.002 17.19-13.938 31.124-31.128 31.124h-67.923l.003 19.038c0 .865.701 1.566 1.566 1.566h126.818c.865 0 1.566-.701 1.566-1.565l.004-29.558c.002-12.928 4.111-25.601 12.074-35.786 12.968-16.588 20.698-37.469 20.697-60.157v-112.95c0-9.843-7.979-17.822-17.821-17.822z"/><path d="m211.795 308.351c4.268 0 7.726-3.459 7.726-7.726v-62.016c-.014.287-.021.577-.021.867v-85.238c0-10.316-6.392-19.139-15.432-22.724v169.111c.001 4.267 3.459 7.726 7.727 7.726z"/><path d="m260.67 308.351c4.268 0 7.726-3.459 7.726-7.726v-51.305c-.014.291-.021.583-.021.877v-10.721c0-9.032-6.719-16.494-15.431-17.662v78.81c0 4.268 3.459 7.727 7.726 7.727z"/><path d="m162.921 346.953c4.268 0 7.726-3.459 7.726-7.726l-.022-25.912-8.207-14.215c-1.994-3.454-4.442-6.482-7.224-9.053v49.18c0 4.267 3.459 7.726 7.727 7.726z"/><path d="m309.545 308.351c4.268 0 7.727-3.459 7.727-7.726v-29.526c-.014.293-.022.588-.022.885v-21.787c0-9.032-6.719-16.494-15.431-17.662v68.089c0 4.268 3.459 7.727 7.726 7.727z"/></g></g></svg>